<?xml version="1.0" standalone="no"?>
<!DOCTYPE svg PUBLIC "-//W3C//DTD SVG 20010904//EN"
 "http://www.w3.org/TR/2001/REC-SVG-20010904/DTD/svg10.dtd">
<svg version="1.0" xmlns="http://www.w3.org/2000/svg"
 width="300.000000pt" height="300.000000pt" viewBox="0 0 300.000000 300.000000"
 preserveAspectRatio="xMidYMid meet">
<metadata>
Created by potrace 1.11, written by Peter Selinger 2001-2013
</metadata>
<g transform="translate(0.000000,300.000000) scale(0.100000,-0.100000)"
fill="#000000" stroke="none">
<path d="M0 1500 l0 -1500 1500 0 1500 0 0 1500 0 1500 -1500 0 -1500 0 0
-1500z m896 726 c3 -3 364 -1462 364 -1469 0 -4 -57 -6 -127 -5 l-128 3 -182
735 c-100 404 -182 739 -182 744 -1 6 250 -1 255 -8z m855 -466 c65 -261 119
-477 119 -480 1 -3 57 211 124 475 l123 480 129 0 128 0 183 -735 c100 -404
182 -739 183 -743 0 -9 -245 -6 -253 3 -3 3 -55 212 -117 465 -61 253 -114
468 -118 478 -4 11 -52 -161 -126 -460 -66 -263 -124 -481 -130 -486 -6 -4
-65 -6 -131 -5 l-120 3 -119 485 -119 485 -28 -108 c-15 -60 -29 -111 -33
-114 -6 -6 -238 -4 -244 2 -2 2 35 163 82 358 47 195 86 357 86 360 0 11 45
15 154 13 l110 -1 117 -475z m-1051 -280 c0 -9 -138 -570 -171 -692 l-10 -38
-119 0 c-65 0 -121 4 -124 8 -2 4 36 171 86 370 l90 362 124 0 c78 0 124 -4
124 -10z"/>
</g>
</svg>
